<svg xmlns="http://www.w3.org/2000/svg" viewBox="0 0 512 512" role="img" aria-label="YAPGATOR app icon">
  <defs>
    <radialGradient id="bg" cx="34%" cy="24%" r="78%">
      <stop offset="0" stop-color="#124c37"/>
      <stop offset="0.55" stop-color="#041411"/>
      <stop offset="1" stop-color="#010606"/>
    </radialGradient>
    <filter id="glow">
      <feGaussianBlur stdDeviation="12" result="blur"/>
      <feMerge>
        <feMergeNode in="blur"/>
        <feMergeNode in="SourceGraphic"/>
      </feMerge>
    </filter>
  </defs>
  <rect width="512" height="512" rx="96" fill="url(#bg)"/>
  <circle cx="256" cy="256" r="220" fill="none" stroke="#37ff86" stroke-width="12" opacity=".26"/>
  <circle cx="256" cy="256" r="198" fill="none" stroke="#28a9ff" stroke-width="8" opacity=".22"/>
  <g transform="translate(0 10) scale(4)" filter="url(#glow)">
    <path d="M13 70c15-31 45-45 82-40 13 2 23 8 28 19-13-5-28-5-44-1L39 59C28 62 19 66 13 70Z" fill="#06120f"/>
    <path d="M18 77c22-17 52-24 92-22 5 0 9 3 11 7-25 2-51 8-77 18-13 5-22 4-26-3Z" fill="#12362c"/>
    <path d="M38 53c15-15 36-20 61-15 7 2 13 5 18 9-27-3-51 2-72 14l-7-8Z" fill="#37ff86"/>
    <path d="M52 53c13-8 30-10 47-6-9 11-26 16-47 6Z" fill="#caff73"/>
    <ellipse cx="75" cy="50" rx="12" ry="7" fill="#03100c"/>
    <circle cx="79" cy="48" r="3" fill="#28a9ff"/>
    <path d="M28 83h14l-7 16Zm25 4h13l-6 14Zm24-5h11l-5 12Z" fill="#f5fff9"/>
    <path d="M22 72c27-22 61-30 101-23" fill="none" stroke="#28a9ff" stroke-width="5" stroke-linecap="round"/>
    <path d="M30 91c30 6 58 1 84-19" fill="none" stroke="#37ff86" stroke-width="5" stroke-linecap="round" opacity=".72"/>
    <path d="M101 65l13 5-12 8" fill="none" stroke="#f5c84b" stroke-width="5" stroke-linecap="round" stroke-linejoin="round"/>
  </g>
</svg>
